<svg width="158" height="301" viewBox="0 0 158 301" fill="none" xmlns="http://www.w3.org/2000/svg">
<g filter="url(#filter0_i_4_17)">
<path fill-rule="evenodd" clip-rule="evenodd" d="M58.5 0C64.299 0 69 4.70101 69 10.5V36.6879C72.5351 36.3287 76.1625 36.1492 79.8821 36.1492C80.9299 36.1492 81.9692 36.1629 83 36.1905V10.5C83 4.70101 87.701 0 93.5 0C99.299 0 104 4.70101 104 10.5V38.9422C108.92 40.1699 113.589 41.8022 118.007 43.8392C129.127 48.8936 137.936 55.8254 144.435 64.6346C148.183 69.6601 150.921 75.0733 152.649 80.8742C154.83 88.1992 148.503 94.6364 140.86 94.6364C134.003 94.6364 128.553 89.3027 125.601 83.1142C122.922 77.4991 118.73 72.8194 113.025 69.0753C110.211 67.2285 107.202 65.6629 104 64.3784L104 142.197C107.401 143.292 110.987 144.552 114.758 145.975C121.906 148.647 128.73 152.293 135.228 156.914C141.799 161.463 147.215 167.312 151.475 174.461C155.735 181.609 157.865 190.382 157.865 200.78C157.865 212.766 154.724 223.597 148.442 233.273C142.232 242.948 133.134 250.638 121.148 256.343C115.925 258.844 110.209 260.796 104 262.201V290.5C104 296.299 99.299 301 93.5 301C87.701 301 83 296.299 83 290.5V264.805C81.2669 264.868 79.5055 264.899 77.7159 264.899C74.7356 264.899 71.8303 264.809 69 264.629V290.5C69 296.299 64.299 301 58.5 301C52.701 301 48 296.299 48 290.5V261.272C43.941 260.169 40.091 258.815 36.4499 257.209C24.8969 252.083 15.7989 244.934 9.1559 235.764C5.38165 230.497 2.54842 224.741 0.656214 218.497C-1.68713 210.764 4.87285 203.813 12.9529 203.813C20.1789 203.813 25.8418 209.55 28.7496 216.165C30.1195 219.282 31.9282 222.096 34.1754 224.608C38.0127 228.779 42.6208 232.136 48 234.679V151.561C36.3864 147.03 26.796 141.305 19.2287 134.386C9.11979 125.144 4.06534 113.049 4.06534 98.1023C4.06534 85.6828 7.42294 74.8518 14.1381 65.6094C20.9255 56.2948 30.0236 49.0741 41.4322 43.9475C43.5749 42.9772 45.7642 42.0974 48 41.3082V10.5C48 4.70101 52.701 0 58.5 0ZM104 236.181C104.448 236.01 104.893 235.835 105.335 235.656C113.494 232.262 119.957 227.568 124.722 221.575C129.488 215.51 131.871 208.434 131.871 200.347C131.871 192.982 129.813 186.988 125.697 182.367C121.581 177.746 116.166 173.991 109.451 171.103C107.672 170.338 105.855 169.598 104 168.884L104 236.181ZM83 162.184L83 240.485C81.2707 240.587 79.5093 240.638 77.7159 240.638C74.7449 240.638 71.8396 240.49 69 240.194L69 158.184L83 162.184ZM83 136.334L83 60.0691C81.693 60.0079 80.3649 59.9773 79.0156 59.9773C75.5217 59.9773 72.1832 60.1784 69 60.5806L69 132.525C70.3551 132.924 71.6718 133.291 72.9503 133.628L83 136.334ZM36.125 77.8484C39.1979 73.6973 43.1562 70.2104 48 67.3876V124.146C47.102 123.642 46.2125 123.12 45.3313 122.58C40.8545 119.764 37.172 116.262 34.2837 112.074C31.4677 107.814 30.0597 102.724 30.0597 96.8026C30.0597 89.7263 32.0814 83.4083 36.125 77.8484Z" fill="url(#paint0_linear_4_17)"/>
</g>
<defs>
<filter id="filter0_i_4_17" x="0.175262" y="0" width="161.69" height="312" filterUnits="userSpaceOnUse" color-interpolation-filters="sRGB">
<feFlood flood-opacity="0" result="BackgroundImageFix"/>
<feBlend mode="normal" in="SourceGraphic" in2="BackgroundImageFix" result="shape"/>
<feColorMatrix in="SourceAlpha" type="matrix" values="0 0 0 0 0 0 0 0 0 0 0 0 0 0 0 0 0 0 127 0" result="hardAlpha"/>
<feOffset dx="4" dy="13"/>
<feGaussianBlur stdDeviation="5.5"/>
<feComposite in2="hardAlpha" operator="arithmetic" k2="-1" k3="1"/>
<feColorMatrix type="matrix" values="0 0 0 0 0.516667 0 0 0 0 0.377597 0 0 0 0 0.377597 0 0 0 0.44 0"/>
<feBlend mode="normal" in2="shape" result="effect1_innerShadow_4_17"/>
</filter>
<linearGradient id="paint0_linear_4_17" x1="77.9325" y1="0" x2="78" y2="354.5" gradientUnits="userSpaceOnUse">
<stop stop-color="#00FF94"/>
<stop offset="1" stop-color="#0D4E33"/>
</linearGradient>
</defs>
</svg>
