<svg width="115" height="112" viewBox="0 0 115 112" fill="none" xmlns="http://www.w3.org/2000/svg">
<g filter="url(#filter0_d_433_51)">
<path d="M88.3133 12.0786C89.0258 11.7992 89.7753 12.3911 89.6686 13.149L87.2717 30.1746C87.1933 30.7317 87.5897 31.2438 88.1487 31.3076L106.189 33.3641C106.969 33.4529 107.347 34.3639 106.86 34.9787L96.6087 47.9142C96.2384 48.3815 96.3567 49.067 96.8622 49.3832L112.589 59.2179C113.287 59.6543 113.188 60.6999 112.421 60.9979L96.8418 67.05C96.2504 67.2797 96.0197 67.9951 96.3655 68.527L106.209 83.6727C106.671 84.3828 106.096 85.3092 105.255 85.2109L87.7729 83.1677C87.1331 83.0929 86.5905 83.6338 86.6632 84.2738L88.5951 101.279C88.6897 102.112 87.7787 102.685 87.069 102.239L71.491 92.4388C70.9686 92.1101 70.2761 92.3286 70.0368 92.8975L63.6423 108.097C63.3307 108.838 62.3167 108.927 61.8806 108.252L51.8622 92.7452C51.5493 92.2609 50.8928 92.1408 50.4288 92.483L36.9393 102.429C36.3191 102.886 35.4366 102.499 35.3519 101.734L33.4066 84.1408C33.3454 83.5866 32.8427 83.1895 32.2893 83.2583L14.7245 85.4423C13.9599 85.5373 13.3795 84.7684 13.6806 84.0591L20.2301 68.6323C20.4554 68.1016 20.1865 67.4908 19.6429 67.2987L2.23662 61.1458C1.4789 60.878 1.33068 59.871 1.9791 59.3962L15.2837 49.6539C15.7817 49.2893 15.8337 48.5651 15.3929 48.133L2.25037 35.2496C1.65162 34.6626 1.99763 33.6437 2.82999 33.5427L19.8203 31.4819C20.4598 31.4043 20.8602 30.7512 20.6392 30.1461L14.6011 13.6134C14.3106 12.818 15.0786 12.044 15.8763 12.3285L32.8906 18.3951C33.4882 18.6082 34.1306 18.218 34.2171 17.5894L36.4948 1.03236C36.607 0.216962 37.6012 -0.121347 38.1874 0.456401L51.3984 13.4762C51.8231 13.8947 52.5173 13.851 52.8861 13.3825L63.0944 0.413039C63.5796 -0.203456 64.5534 -0.0465572 64.8204 0.691149L71.001 17.7645C71.1925 18.2935 71.7826 18.5605 72.3064 18.3551L88.3133 12.0786Z" fill="url(#paint0_linear_433_51)"/>
<path d="M88.4046 12.3113C88.939 12.1018 89.5011 12.5457 89.4211 13.1141L87.0242 30.1397C86.9261 30.8361 87.4217 31.4763 88.1204 31.5559L106.161 33.6125C106.746 33.6791 107.029 34.3623 106.664 34.8235L96.4128 47.7589C95.9499 48.3431 96.0977 49.1999 96.7297 49.5951L112.456 59.4299C112.98 59.7572 112.905 60.5414 112.33 60.7649L96.7513 66.8169C96.012 67.1041 95.7237 67.9983 96.1559 68.6633L106 83.809C106.346 84.3415 105.915 85.0363 105.284 84.9626L87.8019 82.9194C87.0021 82.8259 86.3239 83.502 86.4148 84.3021L88.3467 101.308C88.4176 101.932 87.7344 102.362 87.2021 102.027L71.6241 92.2272C70.9711 91.8164 70.1055 92.0894 69.8063 92.8005L63.4119 108C63.1781 108.556 62.4177 108.623 62.0906 108.117L52.0722 92.6095C51.6811 92.0042 50.8605 91.8541 50.2804 92.2818L36.7909 102.227C36.3258 102.57 35.6639 102.281 35.6004 101.706L33.6551 84.1133C33.5785 83.4205 32.9501 82.9242 32.2585 83.0102L14.6936 85.1942C14.1202 85.2655 13.6849 84.6887 13.9107 84.1568L20.4602 68.73C20.7418 68.0666 20.4057 67.3031 19.7262 67.063L2.31994 60.9101C1.75165 60.7092 1.64048 59.954 2.1268 59.5979L15.4314 49.8556C16.0539 49.3998 16.1189 48.4945 15.568 47.9545L2.42538 35.071C1.97631 34.6308 2.23582 33.8666 2.8601 33.7909L19.8504 31.73C20.6498 31.6331 21.1503 30.8167 20.874 30.0603L14.8359 13.5277C14.618 12.9311 15.194 12.3506 15.7923 12.5639L32.8066 18.6305C33.5537 18.8969 34.3567 18.4092 34.4648 17.6235L36.7425 1.06643C36.8266 0.454881 37.5723 0.201151 38.0119 0.634461L51.2229 13.6543C51.7538 14.1774 52.6216 14.1227 53.0826 13.5371L63.2908 0.567663C63.6547 0.105292 64.3851 0.222967 64.5854 0.776245L70.766 17.8496C71.0053 18.5108 71.7429 18.8445 72.3976 18.5878L88.4046 12.3113L88.3133 12.0786L88.4046 12.3113Z" stroke="#9B5A0D" stroke-width="0.5"/>
</g>
<defs>
<filter id="filter0_d_433_51" x="0.569824" y="0.03125" width="113.489" height="111.178" filterUnits="userSpaceOnUse" color-interpolation-filters="sRGB">
<feFlood flood-opacity="0" result="BackgroundImageFix"/>
<feColorMatrix in="SourceAlpha" type="matrix" values="0 0 0 0 0 0 0 0 0 0 0 0 0 0 0 0 0 0 127 0" result="hardAlpha"/>
<feOffset dy="1.5"/>
<feGaussianBlur stdDeviation="0.5"/>
<feComposite in2="hardAlpha" operator="out"/>
<feColorMatrix type="matrix" values="0 0 0 0 0 0 0 0 0 0 0 0 0 0 0 0 0 0 0.25 0"/>
<feBlend mode="normal" in2="BackgroundImageFix" result="effect1_dropShadow_433_51"/>
<feBlend mode="normal" in="SourceGraphic" in2="effect1_dropShadow_433_51" result="shape"/>
</filter>
<linearGradient id="paint0_linear_433_51" x1="89.9073" y1="11.4536" x2="23.3049" y2="95.7826" gradientUnits="userSpaceOnUse">
<stop stop-color="#FFEB41"/>
<stop offset="1" stop-color="#DDA437"/>
</linearGradient>
</defs>
</svg>
